<mxfile host="app.diagrams.net" modified="2024-04-24T16:07:15.058Z" agent="Mozilla/5.0 (Windows NT 10.0; Win64; x64) AppleWebKit/537.36 (KHTML, like Gecko) Chrome/124.0.0.0 Safari/537.36" etag="V2g3tiBPYSZTIw2Jm1Xc" version="24.2.1" type="device" pages="2">
  <diagram name="Page-1" id="IDzEECTylu6jcxXA_AYi">
    <mxGraphModel dx="2090" dy="922" grid="0" gridSize="10" guides="1" tooltips="1" connect="1" arrows="1" fold="1" page="0" pageScale="1" pageWidth="850" pageHeight="1100" math="0" shadow="0">
      <root>
        <mxCell id="0" />
        <mxCell id="1" parent="0" />
        <mxCell id="lmOX5iegprUitVx04BKG-1" value="Tho" style="whiteSpace=wrap;html=1;align=center;" parent="1" vertex="1">
          <mxGeometry x="-282" y="515" width="100" height="40" as="geometry" />
        </mxCell>
        <mxCell id="lmOX5iegprUitVx04BKG-2" value="Xe" style="whiteSpace=wrap;html=1;align=center;" parent="1" vertex="1">
          <mxGeometry x="45.800000000000004" y="94" width="100" height="40" as="geometry" />
        </mxCell>
        <mxCell id="lmOX5iegprUitVx04BKG-3" value="HopDong" style="whiteSpace=wrap;html=1;align=center;" parent="1" vertex="1">
          <mxGeometry x="487" y="170" width="100" height="40" as="geometry" />
        </mxCell>
        <mxCell id="lmOX5iegprUitVx04BKG-4" value="Khach" style="whiteSpace=wrap;html=1;align=center;" parent="1" vertex="1">
          <mxGeometry x="-330" y="-70" width="100" height="40" as="geometry" />
        </mxCell>
        <mxCell id="lmOX5iegprUitVx04BKG-5" value="CongViec" style="whiteSpace=wrap;html=1;align=center;" parent="1" vertex="1">
          <mxGeometry x="243" y="327" width="100" height="40" as="geometry" />
        </mxCell>
        <mxCell id="lmOX5iegprUitVx04BKG-6" value="ChuyenMon" style="whiteSpace=wrap;html=1;align=center;" parent="1" vertex="1">
          <mxGeometry x="243" y="555" width="100" height="40" as="geometry" />
        </mxCell>
        <mxCell id="lmOX5iegprUitVx04BKG-7" value="XeDap" style="whiteSpace=wrap;html=1;align=center;" parent="1" vertex="1">
          <mxGeometry x="-200.7" y="242" width="100" height="40" as="geometry" />
        </mxCell>
        <mxCell id="lmOX5iegprUitVx04BKG-8" value="XeMay" style="whiteSpace=wrap;html=1;align=center;" parent="1" vertex="1">
          <mxGeometry x="-81.80000000000001" y="242" width="100" height="40" as="geometry" />
        </mxCell>
        <mxCell id="lmOX5iegprUitVx04BKG-9" value="XeHoi" style="whiteSpace=wrap;html=1;align=center;" parent="1" vertex="1">
          <mxGeometry x="46" y="240" width="100" height="40" as="geometry" />
        </mxCell>
        <mxCell id="lmOX5iegprUitVx04BKG-10" value="ThoSuaXe" style="whiteSpace=wrap;html=1;align=center;" parent="1" vertex="1">
          <mxGeometry x="-156.40000000000003" y="635" width="100" height="40" as="geometry" />
        </mxCell>
        <mxCell id="lmOX5iegprUitVx04BKG-11" value="ThoRuaXe" style="whiteSpace=wrap;html=1;align=center;" parent="1" vertex="1">
          <mxGeometry x="-274.2" y="645" width="100" height="40" as="geometry" />
        </mxCell>
        <mxCell id="lmOX5iegprUitVx04BKG-12" value="ThoTrongCoiXe" style="whiteSpace=wrap;html=1;align=center;" parent="1" vertex="1">
          <mxGeometry x="-402" y="645" width="100" height="40" as="geometry" />
        </mxCell>
        <mxCell id="lmOX5iegprUitVx04BKG-13" value="NhanVienVanPhong" style="whiteSpace=wrap;html=1;align=center;" parent="1" vertex="1">
          <mxGeometry x="-156.39999999999998" y="515" width="150" height="40" as="geometry" />
        </mxCell>
        <mxCell id="lmOX5iegprUitVx04BKG-14" value="NhanVien" style="whiteSpace=wrap;html=1;align=center;" parent="1" vertex="1">
          <mxGeometry x="-144.2" y="327" width="100" height="40" as="geometry" />
        </mxCell>
        <mxCell id="lmOX5iegprUitVx04BKG-26" value="HopDongChamSoc" style="whiteSpace=wrap;html=1;align=center;" parent="1" vertex="1">
          <mxGeometry x="610" y="280" width="130" height="40" as="geometry" />
        </mxCell>
        <mxCell id="lmOX5iegprUitVx04BKG-27" value="HopDongThue" style="whiteSpace=wrap;html=1;align=center;" parent="1" vertex="1">
          <mxGeometry x="670" y="110" width="100" height="40" as="geometry" />
        </mxCell>
        <mxCell id="lmOX5iegprUitVx04BKG-28" value="HopDongChoThue" style="whiteSpace=wrap;html=1;align=center;" parent="1" vertex="1">
          <mxGeometry x="690" y="210" width="120" height="40" as="geometry" />
        </mxCell>
        <mxCell id="lmOX5iegprUitVx04BKG-80" value="" style="endArrow=none;html=1;rounded=0;exitX=1;exitY=0.5;exitDx=0;exitDy=0;exitPerimeter=0;" parent="1" source="lmOX5iegprUitVx04BKG-85" target="lmOX5iegprUitVx04BKG-81" edge="1">
          <mxGeometry relative="1" as="geometry">
            <mxPoint x="-228.39999999999998" y="618" as="sourcePoint" />
            <mxPoint x="-121.39999999999999" y="389" as="targetPoint" />
          </mxGeometry>
        </mxCell>
        <mxCell id="lmOX5iegprUitVx04BKG-81" value="d" style="ellipse;whiteSpace=wrap;html=1;align=center;" parent="1" vertex="1">
          <mxGeometry x="-162.39999999999998" y="439" width="20.4" height="16" as="geometry" />
        </mxCell>
        <mxCell id="lmOX5iegprUitVx04BKG-82" value="" style="endArrow=none;html=1;rounded=0;exitX=1;exitY=0.5;exitDx=0;exitDy=0;exitPerimeter=0;" parent="1" source="lmOX5iegprUitVx04BKG-87" target="lmOX5iegprUitVx04BKG-81" edge="1">
          <mxGeometry relative="1" as="geometry">
            <mxPoint x="-185.39999999999998" y="519" as="sourcePoint" />
            <mxPoint x="-25.39999999999999" y="519" as="targetPoint" />
          </mxGeometry>
        </mxCell>
        <mxCell id="lmOX5iegprUitVx04BKG-84" value="" style="endArrow=none;html=1;rounded=0;" parent="1" source="lmOX5iegprUitVx04BKG-1" target="lmOX5iegprUitVx04BKG-85" edge="1">
          <mxGeometry relative="1" as="geometry">
            <mxPoint x="-252.99574468085132" y="526" as="sourcePoint" />
            <mxPoint x="-157.39999999999998" y="458" as="targetPoint" />
          </mxGeometry>
        </mxCell>
        <mxCell id="lmOX5iegprUitVx04BKG-85" value="" style="shape=requiredInterface;html=1;verticalLabelPosition=bottom;sketch=0;rotation=135;" parent="1" vertex="1">
          <mxGeometry x="-191.99999999999994" y="475" width="10" height="20" as="geometry" />
        </mxCell>
        <mxCell id="lmOX5iegprUitVx04BKG-86" value="" style="endArrow=none;html=1;rounded=0;" parent="1" source="lmOX5iegprUitVx04BKG-13" target="lmOX5iegprUitVx04BKG-87" edge="1">
          <mxGeometry relative="1" as="geometry">
            <mxPoint x="-142.67659574468098" y="535" as="sourcePoint" />
            <mxPoint x="-147.39999999999998" y="459" as="targetPoint" />
          </mxGeometry>
        </mxCell>
        <mxCell id="lmOX5iegprUitVx04BKG-87" value="" style="shape=requiredInterface;html=1;verticalLabelPosition=bottom;sketch=0;rotation=45;" parent="1" vertex="1">
          <mxGeometry x="-129.7" y="475" width="10" height="20" as="geometry" />
        </mxCell>
        <mxCell id="lmOX5iegprUitVx04BKG-90" value="" style="shape=link;html=1;rounded=0;" parent="1" source="lmOX5iegprUitVx04BKG-14" target="lmOX5iegprUitVx04BKG-81" edge="1">
          <mxGeometry relative="1" as="geometry">
            <mxPoint x="135.8" y="532" as="sourcePoint" />
            <mxPoint x="295.8" y="532" as="targetPoint" />
          </mxGeometry>
        </mxCell>
        <mxCell id="lmOX5iegprUitVx04BKG-91" value="" style="resizable=0;html=1;whiteSpace=wrap;align=right;verticalAlign=bottom;" parent="lmOX5iegprUitVx04BKG-90" connectable="0" vertex="1">
          <mxGeometry x="1" relative="1" as="geometry" />
        </mxCell>
        <mxCell id="lmOX5iegprUitVx04BKG-92" value="" style="endArrow=none;html=1;rounded=0;exitX=1;exitY=0.5;exitDx=0;exitDy=0;exitPerimeter=0;" parent="1" source="lmOX5iegprUitVx04BKG-96" target="lmOX5iegprUitVx04BKG-93" edge="1">
          <mxGeometry relative="1" as="geometry">
            <mxPoint x="-435.4" y="688" as="sourcePoint" />
            <mxPoint x="-328.4" y="459" as="targetPoint" />
          </mxGeometry>
        </mxCell>
        <mxCell id="lmOX5iegprUitVx04BKG-93" value="d" style="ellipse;whiteSpace=wrap;html=1;align=center;" parent="1" vertex="1">
          <mxGeometry x="-262.4" y="575" width="20.4" height="16" as="geometry" />
        </mxCell>
        <mxCell id="lmOX5iegprUitVx04BKG-94" value="" style="endArrow=none;html=1;rounded=0;exitX=1;exitY=0.5;exitDx=0;exitDy=0;exitPerimeter=0;" parent="1" source="lmOX5iegprUitVx04BKG-98" target="lmOX5iegprUitVx04BKG-93" edge="1">
          <mxGeometry relative="1" as="geometry">
            <mxPoint x="-392.4" y="589" as="sourcePoint" />
            <mxPoint x="-232.39999999999998" y="589" as="targetPoint" />
          </mxGeometry>
        </mxCell>
        <mxCell id="lmOX5iegprUitVx04BKG-95" value="" style="endArrow=none;html=1;rounded=0;" parent="1" source="lmOX5iegprUitVx04BKG-12" target="lmOX5iegprUitVx04BKG-96" edge="1">
          <mxGeometry relative="1" as="geometry">
            <mxPoint x="-424" y="585" as="sourcePoint" />
            <mxPoint x="-364.4" y="528" as="targetPoint" />
          </mxGeometry>
        </mxCell>
        <mxCell id="lmOX5iegprUitVx04BKG-96" value="" style="shape=requiredInterface;html=1;verticalLabelPosition=bottom;sketch=0;rotation=135;" parent="1" vertex="1">
          <mxGeometry x="-311.99999999999994" y="615" width="10" height="20" as="geometry" />
        </mxCell>
        <mxCell id="lmOX5iegprUitVx04BKG-97" value="" style="endArrow=none;html=1;rounded=0;" parent="1" source="lmOX5iegprUitVx04BKG-11" target="lmOX5iegprUitVx04BKG-98" edge="1">
          <mxGeometry relative="1" as="geometry">
            <mxPoint x="-272" y="585" as="sourcePoint" />
            <mxPoint x="-354.4" y="529" as="targetPoint" />
          </mxGeometry>
        </mxCell>
        <mxCell id="lmOX5iegprUitVx04BKG-98" value="" style="shape=requiredInterface;html=1;verticalLabelPosition=bottom;sketch=0;rotation=65;" parent="1" vertex="1">
          <mxGeometry x="-242" y="605" width="10" height="20" as="geometry" />
        </mxCell>
        <mxCell id="lmOX5iegprUitVx04BKG-99" value="" style="shape=link;html=1;rounded=0;" parent="1" source="lmOX5iegprUitVx04BKG-1" target="lmOX5iegprUitVx04BKG-93" edge="1">
          <mxGeometry relative="1" as="geometry">
            <mxPoint x="-384" y="485" as="sourcePoint" />
            <mxPoint x="-149" y="565" as="targetPoint" />
          </mxGeometry>
        </mxCell>
        <mxCell id="lmOX5iegprUitVx04BKG-100" value="" style="resizable=0;html=1;whiteSpace=wrap;align=right;verticalAlign=bottom;" parent="lmOX5iegprUitVx04BKG-99" connectable="0" vertex="1">
          <mxGeometry x="1" relative="1" as="geometry" />
        </mxCell>
        <mxCell id="lmOX5iegprUitVx04BKG-101" value="" style="endArrow=none;html=1;rounded=0;exitX=1;exitY=0.5;exitDx=0;exitDy=0;exitPerimeter=0;" parent="1" source="lmOX5iegprUitVx04BKG-103" target="lmOX5iegprUitVx04BKG-93" edge="1">
          <mxGeometry relative="1" as="geometry">
            <mxPoint x="-382.4" y="472" as="sourcePoint" />
            <mxPoint x="-341" y="405" as="targetPoint" />
          </mxGeometry>
        </mxCell>
        <mxCell id="lmOX5iegprUitVx04BKG-102" value="" style="endArrow=none;html=1;rounded=0;" parent="1" source="lmOX5iegprUitVx04BKG-10" target="lmOX5iegprUitVx04BKG-103" edge="1">
          <mxGeometry relative="1" as="geometry">
            <mxPoint x="-262" y="468" as="sourcePoint" />
            <mxPoint x="-344.4" y="412" as="targetPoint" />
          </mxGeometry>
        </mxCell>
        <mxCell id="lmOX5iegprUitVx04BKG-103" value="" style="shape=requiredInterface;html=1;verticalLabelPosition=bottom;sketch=0;rotation=20;" parent="1" vertex="1">
          <mxGeometry x="-192" y="605" width="10" height="20" as="geometry" />
        </mxCell>
        <mxCell id="lmOX5iegprUitVx04BKG-106" value="" style="endArrow=none;html=1;rounded=0;exitX=1;exitY=0.5;exitDx=0;exitDy=0;exitPerimeter=0;" parent="1" source="lmOX5iegprUitVx04BKG-110" target="lmOX5iegprUitVx04BKG-107" edge="1">
          <mxGeometry relative="1" as="geometry">
            <mxPoint x="463.6" y="143" as="sourcePoint" />
            <mxPoint x="570.6" y="-86" as="targetPoint" />
          </mxGeometry>
        </mxCell>
        <mxCell id="lmOX5iegprUitVx04BKG-107" value="d" style="ellipse;whiteSpace=wrap;html=1;align=center;" parent="1" vertex="1">
          <mxGeometry x="597" y="194" width="20.4" height="16" as="geometry" />
        </mxCell>
        <mxCell id="lmOX5iegprUitVx04BKG-108" value="" style="endArrow=none;html=1;rounded=0;exitX=1;exitY=0.5;exitDx=0;exitDy=0;exitPerimeter=0;" parent="1" source="lmOX5iegprUitVx04BKG-112" target="lmOX5iegprUitVx04BKG-107" edge="1">
          <mxGeometry relative="1" as="geometry">
            <mxPoint x="506.6" y="44" as="sourcePoint" />
            <mxPoint x="666.6" y="44" as="targetPoint" />
          </mxGeometry>
        </mxCell>
        <mxCell id="lmOX5iegprUitVx04BKG-109" value="" style="endArrow=none;html=1;rounded=0;" parent="1" source="lmOX5iegprUitVx04BKG-26" target="lmOX5iegprUitVx04BKG-110" edge="1">
          <mxGeometry relative="1" as="geometry">
            <mxPoint x="570" y="100" as="sourcePoint" />
            <mxPoint x="534.6" y="-17" as="targetPoint" />
          </mxGeometry>
        </mxCell>
        <mxCell id="lmOX5iegprUitVx04BKG-110" value="" style="shape=requiredInterface;html=1;verticalLabelPosition=bottom;sketch=0;rotation=55;" parent="1" vertex="1">
          <mxGeometry x="630" y="240" width="10" height="20" as="geometry" />
        </mxCell>
        <mxCell id="lmOX5iegprUitVx04BKG-111" value="" style="endArrow=none;html=1;rounded=0;" parent="1" source="lmOX5iegprUitVx04BKG-28" target="lmOX5iegprUitVx04BKG-112" edge="1">
          <mxGeometry relative="1" as="geometry">
            <mxPoint x="675" y="110" as="sourcePoint" />
            <mxPoint x="544.6" y="-16" as="targetPoint" />
          </mxGeometry>
        </mxCell>
        <mxCell id="lmOX5iegprUitVx04BKG-112" value="" style="shape=requiredInterface;html=1;verticalLabelPosition=bottom;sketch=0;rotation=15;" parent="1" vertex="1">
          <mxGeometry x="650" y="200" width="10" height="20" as="geometry" />
        </mxCell>
        <mxCell id="lmOX5iegprUitVx04BKG-113" value="" style="shape=link;html=1;rounded=0;" parent="1" source="lmOX5iegprUitVx04BKG-3" target="lmOX5iegprUitVx04BKG-107" edge="1">
          <mxGeometry relative="1" as="geometry">
            <mxPoint x="659" y="10" as="sourcePoint" />
            <mxPoint x="750" y="20" as="targetPoint" />
          </mxGeometry>
        </mxCell>
        <mxCell id="lmOX5iegprUitVx04BKG-114" value="" style="resizable=0;html=1;whiteSpace=wrap;align=right;verticalAlign=bottom;" parent="lmOX5iegprUitVx04BKG-113" connectable="0" vertex="1">
          <mxGeometry x="1" relative="1" as="geometry" />
        </mxCell>
        <mxCell id="lmOX5iegprUitVx04BKG-115" value="" style="endArrow=none;html=1;rounded=0;exitX=1;exitY=0.5;exitDx=0;exitDy=0;exitPerimeter=0;" parent="1" source="lmOX5iegprUitVx04BKG-117" target="lmOX5iegprUitVx04BKG-107" edge="1">
          <mxGeometry relative="1" as="geometry">
            <mxPoint x="516.6" y="-73" as="sourcePoint" />
            <mxPoint x="558" y="-140" as="targetPoint" />
          </mxGeometry>
        </mxCell>
        <mxCell id="lmOX5iegprUitVx04BKG-116" value="" style="endArrow=none;html=1;rounded=0;" parent="1" source="lmOX5iegprUitVx04BKG-27" target="lmOX5iegprUitVx04BKG-117" edge="1">
          <mxGeometry relative="1" as="geometry">
            <mxPoint x="775" y="90" as="sourcePoint" />
            <mxPoint x="554.6" y="-133" as="targetPoint" />
          </mxGeometry>
        </mxCell>
        <mxCell id="lmOX5iegprUitVx04BKG-117" value="" style="shape=requiredInterface;html=1;verticalLabelPosition=bottom;sketch=0;rotation=-45;" parent="1" vertex="1">
          <mxGeometry x="660" y="160" width="10" height="20" as="geometry" />
        </mxCell>
        <mxCell id="lmOX5iegprUitVx04BKG-118" value="" style="endArrow=none;html=1;rounded=0;exitX=1;exitY=0.5;exitDx=0;exitDy=0;exitPerimeter=0;" parent="1" source="lmOX5iegprUitVx04BKG-122" target="lmOX5iegprUitVx04BKG-119" edge="1">
          <mxGeometry relative="1" as="geometry">
            <mxPoint x="-229.79999999999995" y="263" as="sourcePoint" />
            <mxPoint x="-122.79999999999995" y="34" as="targetPoint" />
          </mxGeometry>
        </mxCell>
        <mxCell id="lmOX5iegprUitVx04BKG-119" value="d" style="ellipse;whiteSpace=wrap;html=1;align=center;" parent="1" vertex="1">
          <mxGeometry x="-36.79999999999997" y="160" width="20.4" height="16" as="geometry" />
        </mxCell>
        <mxCell id="lmOX5iegprUitVx04BKG-120" value="" style="endArrow=none;html=1;rounded=0;exitX=1;exitY=0.5;exitDx=0;exitDy=0;exitPerimeter=0;" parent="1" source="lmOX5iegprUitVx04BKG-124" target="lmOX5iegprUitVx04BKG-119" edge="1">
          <mxGeometry relative="1" as="geometry">
            <mxPoint x="-186.79999999999995" y="164" as="sourcePoint" />
            <mxPoint x="-26.79999999999997" y="164" as="targetPoint" />
          </mxGeometry>
        </mxCell>
        <mxCell id="lmOX5iegprUitVx04BKG-121" value="" style="endArrow=none;html=1;rounded=0;" parent="1" source="lmOX5iegprUitVx04BKG-7" target="lmOX5iegprUitVx04BKG-122" edge="1">
          <mxGeometry relative="1" as="geometry">
            <mxPoint x="-123.39999999999998" y="220" as="sourcePoint" />
            <mxPoint x="-158.79999999999995" y="103" as="targetPoint" />
          </mxGeometry>
        </mxCell>
        <mxCell id="lmOX5iegprUitVx04BKG-122" value="" style="shape=requiredInterface;html=1;verticalLabelPosition=bottom;sketch=0;rotation=135;" parent="1" vertex="1">
          <mxGeometry x="-109" y="210" width="10" height="20" as="geometry" />
        </mxCell>
        <mxCell id="lmOX5iegprUitVx04BKG-123" value="" style="endArrow=none;html=1;rounded=0;" parent="1" source="lmOX5iegprUitVx04BKG-8" target="lmOX5iegprUitVx04BKG-124" edge="1">
          <mxGeometry relative="1" as="geometry">
            <mxPoint x="-18.39999999999999" y="230" as="sourcePoint" />
            <mxPoint x="-148.79999999999995" y="104" as="targetPoint" />
          </mxGeometry>
        </mxCell>
        <mxCell id="lmOX5iegprUitVx04BKG-124" value="" style="shape=requiredInterface;html=1;verticalLabelPosition=bottom;sketch=0;rotation=90;" parent="1" vertex="1">
          <mxGeometry x="-36.79999999999997" y="200" width="10" height="20" as="geometry" />
        </mxCell>
        <mxCell id="lmOX5iegprUitVx04BKG-127" value="" style="endArrow=none;html=1;rounded=0;exitX=1;exitY=0.5;exitDx=0;exitDy=0;exitPerimeter=0;" parent="1" source="lmOX5iegprUitVx04BKG-129" target="lmOX5iegprUitVx04BKG-119" edge="1">
          <mxGeometry relative="1" as="geometry">
            <mxPoint x="-176.79999999999995" y="47" as="sourcePoint" />
            <mxPoint x="-135.39999999999998" y="-20" as="targetPoint" />
          </mxGeometry>
        </mxCell>
        <mxCell id="lmOX5iegprUitVx04BKG-128" value="" style="endArrow=none;html=1;rounded=0;" parent="1" source="lmOX5iegprUitVx04BKG-9" target="lmOX5iegprUitVx04BKG-129" edge="1">
          <mxGeometry relative="1" as="geometry">
            <mxPoint x="81.60000000000002" y="210" as="sourcePoint" />
            <mxPoint x="-138.79999999999995" y="-13" as="targetPoint" />
          </mxGeometry>
        </mxCell>
        <mxCell id="lmOX5iegprUitVx04BKG-129" value="" style="shape=requiredInterface;html=1;verticalLabelPosition=bottom;sketch=0;rotation=45;" parent="1" vertex="1">
          <mxGeometry x="36" y="200" width="10" height="20" as="geometry" />
        </mxCell>
        <mxCell id="lmOX5iegprUitVx04BKG-130" value="" style="endArrow=none;html=1;rounded=0;" parent="1" source="lmOX5iegprUitVx04BKG-119" target="lmOX5iegprUitVx04BKG-2" edge="1">
          <mxGeometry relative="1" as="geometry">
            <mxPoint x="264" y="10.15" as="sourcePoint" />
            <mxPoint x="83.60000000000018" y="112.99638425331628" as="targetPoint" />
          </mxGeometry>
        </mxCell>
        <mxCell id="lmOX5iegprUitVx04BKG-131" value="Ky" style="shape=rhombus;perimeter=rhombusPerimeter;whiteSpace=wrap;html=1;align=center;" parent="1" vertex="1">
          <mxGeometry x="270" y="116" width="93" height="50" as="geometry" />
        </mxCell>
        <mxCell id="lmOX5iegprUitVx04BKG-136" value="Lam" style="shape=rhombus;perimeter=rhombusPerimeter;whiteSpace=wrap;html=1;align=center;" parent="1" vertex="1">
          <mxGeometry x="38.8" y="317" width="120" height="60" as="geometry" />
        </mxCell>
        <mxCell id="lmOX5iegprUitVx04BKG-142" value="ChiTietHopDong" style="shape=rhombus;perimeter=rhombusPerimeter;whiteSpace=wrap;html=1;align=center;" parent="1" vertex="1">
          <mxGeometry x="477" y="330" width="120" height="60" as="geometry" />
        </mxCell>
        <mxCell id="lmOX5iegprUitVx04BKG-145" value="Gioi" style="shape=rhombus;perimeter=rhombusPerimeter;whiteSpace=wrap;html=1;align=center;" parent="1" vertex="1">
          <mxGeometry x="25.799999999999997" y="399" width="120" height="60" as="geometry" />
        </mxCell>
        <mxCell id="lmOX5iegprUitVx04BKG-150" value="SoHuu" style="shape=rhombus;perimeter=rhombusPerimeter;whiteSpace=wrap;html=1;align=center;" parent="1" vertex="1">
          <mxGeometry x="-150.5" y="-20" width="120" height="60" as="geometry" />
        </mxCell>
        <mxCell id="lmOX5iegprUitVx04BKG-158" value="" style="fontSize=12;html=1;endArrow=ERmandOne;rounded=0;" parent="1" source="lmOX5iegprUitVx04BKG-150" target="lmOX5iegprUitVx04BKG-4" edge="1">
          <mxGeometry width="100" height="100" relative="1" as="geometry">
            <mxPoint x="210" y="180" as="sourcePoint" />
            <mxPoint x="310" y="80" as="targetPoint" />
          </mxGeometry>
        </mxCell>
        <mxCell id="lmOX5iegprUitVx04BKG-159" value="" style="fontSize=12;html=1;endArrow=ERoneToMany;rounded=0;" parent="1" source="lmOX5iegprUitVx04BKG-150" target="lmOX5iegprUitVx04BKG-2" edge="1">
          <mxGeometry width="100" height="100" relative="1" as="geometry">
            <mxPoint x="210" y="180" as="sourcePoint" />
            <mxPoint x="310" y="80" as="targetPoint" />
          </mxGeometry>
        </mxCell>
        <mxCell id="lmOX5iegprUitVx04BKG-160" value="CHỈ QUẢN LÝ TRONG THẾ GIỚI CỦA CÔNG TY QUẢN LÝ" style="ellipse;whiteSpace=wrap;html=1;align=center;" parent="1" vertex="1">
          <mxGeometry x="-425" y="-330" width="425" height="120" as="geometry" />
        </mxCell>
        <mxCell id="lmOX5iegprUitVx04BKG-161" value="" style="fontSize=12;html=1;endArrow=ERoneToMany;rounded=0;" parent="1" source="lmOX5iegprUitVx04BKG-131" target="lmOX5iegprUitVx04BKG-2" edge="1">
          <mxGeometry width="100" height="100" relative="1" as="geometry">
            <mxPoint x="210" y="110" as="sourcePoint" />
            <mxPoint x="310" y="10" as="targetPoint" />
          </mxGeometry>
        </mxCell>
        <mxCell id="lmOX5iegprUitVx04BKG-162" value="" style="fontSize=12;html=1;endArrow=ERoneToMany;rounded=0;endFill=0;" parent="1" source="lmOX5iegprUitVx04BKG-131" target="lmOX5iegprUitVx04BKG-3" edge="1">
          <mxGeometry width="100" height="100" relative="1" as="geometry">
            <mxPoint x="210" y="110" as="sourcePoint" />
            <mxPoint x="310" y="10" as="targetPoint" />
          </mxGeometry>
        </mxCell>
        <mxCell id="lmOX5iegprUitVx04BKG-167" value="" style="fontSize=12;html=1;endArrow=ERoneToMany;rounded=0;" parent="1" source="lmOX5iegprUitVx04BKG-136" target="lmOX5iegprUitVx04BKG-14" edge="1">
          <mxGeometry width="100" height="100" relative="1" as="geometry">
            <mxPoint x="95.8" y="389" as="sourcePoint" />
            <mxPoint x="195.8" y="289" as="targetPoint" />
          </mxGeometry>
        </mxCell>
        <mxCell id="lmOX5iegprUitVx04BKG-168" value="" style="fontSize=12;html=1;endArrow=ERoneToMany;rounded=0;" parent="1" source="lmOX5iegprUitVx04BKG-136" target="lmOX5iegprUitVx04BKG-5" edge="1">
          <mxGeometry width="100" height="100" relative="1" as="geometry">
            <mxPoint x="95.8" y="399" as="sourcePoint" />
            <mxPoint x="195.8" y="299" as="targetPoint" />
          </mxGeometry>
        </mxCell>
        <mxCell id="lmOX5iegprUitVx04BKG-169" value="" style="fontSize=12;html=1;endArrow=ERoneToMany;rounded=0;" parent="1" source="lmOX5iegprUitVx04BKG-145" target="lmOX5iegprUitVx04BKG-14" edge="1">
          <mxGeometry width="100" height="100" relative="1" as="geometry">
            <mxPoint x="48.8" y="357" as="sourcePoint" />
            <mxPoint x="-34.2" y="357" as="targetPoint" />
          </mxGeometry>
        </mxCell>
        <mxCell id="lmOX5iegprUitVx04BKG-170" value="" style="fontSize=12;html=1;endArrow=ERzeroToMany;endFill=1;rounded=0;" parent="1" source="lmOX5iegprUitVx04BKG-145" target="lmOX5iegprUitVx04BKG-6" edge="1">
          <mxGeometry width="100" height="100" relative="1" as="geometry">
            <mxPoint x="105.8" y="399" as="sourcePoint" />
            <mxPoint x="205.8" y="299" as="targetPoint" />
          </mxGeometry>
        </mxCell>
        <mxCell id="lmOX5iegprUitVx04BKG-171" value="Có thể có chuyên môn mà không một nhân viên nào có" style="text;strokeColor=none;fillColor=none;spacingLeft=4;spacingRight=4;overflow=hidden;rotatable=0;points=[[0,0.5],[1,0.5]];portConstraint=eastwest;fontSize=12;whiteSpace=wrap;html=1;" parent="1" vertex="1">
          <mxGeometry x="356" y="560" width="150" height="30" as="geometry" />
        </mxCell>
        <mxCell id="lmOX5iegprUitVx04BKG-172" value="Có thể tồn tại khách chưa thanh toán hơp đồng và ngược lại, cũng có những hợp đồng chưa được thanh toán. Cho phép thanh toán nhiều lần đến khi đủ cho một hợp đồng.&lt;div&gt;Mỗi lần thanh toán sẽ sinh ra một phiếu thu&lt;/div&gt;" style="text;strokeColor=none;fillColor=none;spacingLeft=4;spacingRight=4;overflow=hidden;rotatable=0;points=[[0,0.5],[1,0.5]];portConstraint=eastwest;fontSize=12;whiteSpace=wrap;html=1;" parent="1" vertex="1">
          <mxGeometry x="426" y="-204" width="224" height="147" as="geometry" />
        </mxCell>
        <mxCell id="lmOX5iegprUitVx04BKG-179" value="" style="fontSize=12;html=1;endArrow=ERzeroToMany;endFill=1;rounded=0;" parent="1" source="lmOX5iegprUitVx04BKG-142" target="lmOX5iegprUitVx04BKG-5" edge="1">
          <mxGeometry width="100" height="100" relative="1" as="geometry">
            <mxPoint x="71" y="345" as="sourcePoint" />
            <mxPoint x="178" y="299" as="targetPoint" />
          </mxGeometry>
        </mxCell>
        <mxCell id="lmOX5iegprUitVx04BKG-180" value="" style="fontSize=12;html=1;endArrow=ERoneToMany;rounded=0;" parent="1" source="lmOX5iegprUitVx04BKG-142" target="lmOX5iegprUitVx04BKG-3" edge="1">
          <mxGeometry width="100" height="100" relative="1" as="geometry">
            <mxPoint x="71" y="345" as="sourcePoint" />
            <mxPoint x="171" y="245" as="targetPoint" />
          </mxGeometry>
        </mxCell>
        <mxCell id="lmOX5iegprUitVx04BKG-181" value="MaKhach" style="ellipse;whiteSpace=wrap;html=1;align=center;fontStyle=4;" parent="1" vertex="1">
          <mxGeometry x="-481" y="-45" width="100" height="40" as="geometry" />
        </mxCell>
        <mxCell id="lmOX5iegprUitVx04BKG-183" value="" style="endArrow=none;html=1;rounded=0;" parent="1" source="lmOX5iegprUitVx04BKG-181" target="lmOX5iegprUitVx04BKG-4" edge="1">
          <mxGeometry relative="1" as="geometry">
            <mxPoint x="-430" y="11" as="sourcePoint" />
            <mxPoint x="201" y="295" as="targetPoint" />
          </mxGeometry>
        </mxCell>
        <mxCell id="lmOX5iegprUitVx04BKG-184" value="TongTienThu" style="ellipse;whiteSpace=wrap;html=1;align=center;" parent="1" vertex="1">
          <mxGeometry x="331" y="-254" width="100" height="40" as="geometry" />
        </mxCell>
        <mxCell id="lmOX5iegprUitVx04BKG-185" value="" style="endArrow=none;html=1;rounded=0;" parent="1" source="lmOX5iegprUitVx04BKG-201" target="lmOX5iegprUitVx04BKG-184" edge="1">
          <mxGeometry relative="1" as="geometry">
            <mxPoint x="806" y="-106" as="sourcePoint" />
            <mxPoint x="966" y="-106" as="targetPoint" />
          </mxGeometry>
        </mxCell>
        <mxCell id="lmOX5iegprUitVx04BKG-186" value="TienTraTho" style="ellipse;whiteSpace=wrap;html=1;align=center;dashed=1;" parent="1" vertex="1">
          <mxGeometry x="580" y="380" width="100" height="40" as="geometry" />
        </mxCell>
        <mxCell id="lmOX5iegprUitVx04BKG-187" value="" style="endArrow=none;html=1;rounded=0;" parent="1" source="lmOX5iegprUitVx04BKG-142" target="lmOX5iegprUitVx04BKG-186" edge="1">
          <mxGeometry relative="1" as="geometry">
            <mxPoint x="41" y="295" as="sourcePoint" />
            <mxPoint x="201" y="295" as="targetPoint" />
          </mxGeometry>
        </mxCell>
        <mxCell id="lmOX5iegprUitVx04BKG-188" value="MaNV" style="ellipse;whiteSpace=wrap;html=1;align=center;fontStyle=4" parent="1" vertex="1">
          <mxGeometry x="-286.5" y="312" width="109" height="40" as="geometry" />
        </mxCell>
        <mxCell id="lmOX5iegprUitVx04BKG-189" value="" style="endArrow=none;html=1;rounded=0;" parent="1" source="lmOX5iegprUitVx04BKG-188" target="lmOX5iegprUitVx04BKG-14" edge="1">
          <mxGeometry relative="1" as="geometry">
            <mxPoint x="41" y="295" as="sourcePoint" />
            <mxPoint x="201" y="295" as="targetPoint" />
          </mxGeometry>
        </mxCell>
        <mxCell id="lmOX5iegprUitVx04BKG-190" value="MaXe" style="ellipse;whiteSpace=wrap;html=1;align=center;fontStyle=4;" parent="1" vertex="1">
          <mxGeometry x="4.999999999999986" y="26" width="100" height="40" as="geometry" />
        </mxCell>
        <mxCell id="lmOX5iegprUitVx04BKG-192" value="" style="endArrow=none;html=1;rounded=0;" parent="1" source="lmOX5iegprUitVx04BKG-190" target="lmOX5iegprUitVx04BKG-2" edge="1">
          <mxGeometry relative="1" as="geometry">
            <mxPoint x="41" y="295" as="sourcePoint" />
            <mxPoint x="201" y="295" as="targetPoint" />
          </mxGeometry>
        </mxCell>
        <mxCell id="lmOX5iegprUitVx04BKG-193" value="" style="endArrow=none;html=1;rounded=0;" parent="1" source="lmOX5iegprUitVx04BKG-2" target="xj7sImhzJxMky1cZu01J-1" edge="1">
          <mxGeometry relative="1" as="geometry">
            <mxPoint x="41" y="295" as="sourcePoint" />
            <mxPoint x="141.60162481558154" y="61.89378010378573" as="targetPoint" />
          </mxGeometry>
        </mxCell>
        <mxCell id="lmOX5iegprUitVx04BKG-194" value="MaHD" style="ellipse;whiteSpace=wrap;html=1;align=center;fontStyle=4;" parent="1" vertex="1">
          <mxGeometry x="517.4" y="103" width="100" height="40" as="geometry" />
        </mxCell>
        <mxCell id="lmOX5iegprUitVx04BKG-195" value="" style="endArrow=none;html=1;rounded=0;" parent="1" source="lmOX5iegprUitVx04BKG-3" target="lmOX5iegprUitVx04BKG-194" edge="1">
          <mxGeometry relative="1" as="geometry">
            <mxPoint x="41" y="295" as="sourcePoint" />
            <mxPoint x="201" y="295" as="targetPoint" />
          </mxGeometry>
        </mxCell>
        <mxCell id="lmOX5iegprUitVx04BKG-196" value="MaCV" style="ellipse;whiteSpace=wrap;html=1;align=center;fontStyle=4;" parent="1" vertex="1">
          <mxGeometry x="246" y="257" width="100" height="40" as="geometry" />
        </mxCell>
        <mxCell id="lmOX5iegprUitVx04BKG-197" value="" style="endArrow=none;html=1;rounded=0;" parent="1" source="lmOX5iegprUitVx04BKG-5" target="lmOX5iegprUitVx04BKG-196" edge="1">
          <mxGeometry relative="1" as="geometry">
            <mxPoint x="41" y="295" as="sourcePoint" />
            <mxPoint x="201" y="295" as="targetPoint" />
          </mxGeometry>
        </mxCell>
        <mxCell id="lmOX5iegprUitVx04BKG-199" value="MaCM" style="ellipse;whiteSpace=wrap;html=1;align=center;fontStyle=4;" parent="1" vertex="1">
          <mxGeometry x="196" y="617" width="100" height="40" as="geometry" />
        </mxCell>
        <mxCell id="lmOX5iegprUitVx04BKG-200" value="" style="endArrow=none;html=1;rounded=0;" parent="1" source="lmOX5iegprUitVx04BKG-199" target="lmOX5iegprUitVx04BKG-6" edge="1">
          <mxGeometry relative="1" as="geometry">
            <mxPoint x="41" y="295" as="sourcePoint" />
            <mxPoint x="201" y="295" as="targetPoint" />
          </mxGeometry>
        </mxCell>
        <mxCell id="lmOX5iegprUitVx04BKG-201" value="PhieuThu" style="whiteSpace=wrap;html=1;align=center;" parent="1" vertex="1">
          <mxGeometry x="228" y="-191" width="100" height="40" as="geometry" />
        </mxCell>
        <mxCell id="lmOX5iegprUitVx04BKG-202" value="MaPT" style="ellipse;whiteSpace=wrap;html=1;align=center;fontStyle=4;" parent="1" vertex="1">
          <mxGeometry x="208" y="-285" width="100" height="40" as="geometry" />
        </mxCell>
        <mxCell id="lmOX5iegprUitVx04BKG-203" value="" style="endArrow=none;html=1;rounded=0;" parent="1" source="lmOX5iegprUitVx04BKG-202" target="lmOX5iegprUitVx04BKG-201" edge="1">
          <mxGeometry relative="1" as="geometry">
            <mxPoint x="806" y="-106" as="sourcePoint" />
            <mxPoint x="966" y="-106" as="targetPoint" />
          </mxGeometry>
        </mxCell>
        <mxCell id="lmOX5iegprUitVx04BKG-204" value="NhanDuoc" style="shape=rhombus;perimeter=rhombusPerimeter;whiteSpace=wrap;html=1;align=center;" parent="1" vertex="1">
          <mxGeometry x="-70" y="-155" width="120" height="60" as="geometry" />
        </mxCell>
        <mxCell id="lmOX5iegprUitVx04BKG-205" value="SinhRa" style="shape=rhombus;perimeter=rhombusPerimeter;whiteSpace=wrap;html=1;align=center;" parent="1" vertex="1">
          <mxGeometry x="321" y="-47" width="120" height="60" as="geometry" />
        </mxCell>
        <mxCell id="lmOX5iegprUitVx04BKG-206" value="" style="fontSize=12;html=1;endArrow=ERzeroToOne;endFill=1;rounded=0;" parent="1" source="lmOX5iegprUitVx04BKG-204" target="lmOX5iegprUitVx04BKG-4" edge="1">
          <mxGeometry width="100" height="100" relative="1" as="geometry">
            <mxPoint x="71" y="-83" as="sourcePoint" />
            <mxPoint x="171" y="-183" as="targetPoint" />
          </mxGeometry>
        </mxCell>
        <mxCell id="lmOX5iegprUitVx04BKG-207" value="" style="fontSize=12;html=1;endArrow=ERoneToMany;rounded=0;" parent="1" source="lmOX5iegprUitVx04BKG-204" target="lmOX5iegprUitVx04BKG-201" edge="1">
          <mxGeometry width="100" height="100" relative="1" as="geometry">
            <mxPoint x="71" y="-83" as="sourcePoint" />
            <mxPoint x="171" y="-183" as="targetPoint" />
          </mxGeometry>
        </mxCell>
        <mxCell id="lmOX5iegprUitVx04BKG-208" value="" style="fontSize=12;html=1;endArrow=ERzeroToOne;endFill=1;rounded=0;" parent="1" source="lmOX5iegprUitVx04BKG-205" target="lmOX5iegprUitVx04BKG-3" edge="1">
          <mxGeometry width="100" height="100" relative="1" as="geometry">
            <mxPoint x="71" y="-83" as="sourcePoint" />
            <mxPoint x="171" y="-183" as="targetPoint" />
          </mxGeometry>
        </mxCell>
        <mxCell id="lmOX5iegprUitVx04BKG-209" value="" style="fontSize=12;html=1;endArrow=ERoneToMany;rounded=0;" parent="1" source="lmOX5iegprUitVx04BKG-205" target="lmOX5iegprUitVx04BKG-201" edge="1">
          <mxGeometry width="100" height="100" relative="1" as="geometry">
            <mxPoint x="71" y="-83" as="sourcePoint" />
            <mxPoint x="171" y="-183" as="targetPoint" />
          </mxGeometry>
        </mxCell>
        <mxCell id="lmOX5iegprUitVx04BKG-210" value="ChoDauXe" style="whiteSpace=wrap;html=1;align=center;" parent="1" vertex="1">
          <mxGeometry x="-481" y="118.15" width="100" height="40" as="geometry" />
        </mxCell>
        <mxCell id="lmOX5iegprUitVx04BKG-211" value="" style="endArrow=none;html=1;rounded=0;" parent="1" source="lmOX5iegprUitVx04BKG-214" target="lmOX5iegprUitVx04BKG-210" edge="1">
          <mxGeometry relative="1" as="geometry">
            <mxPoint x="246" y="193" as="sourcePoint" />
            <mxPoint x="406" y="193" as="targetPoint" />
          </mxGeometry>
        </mxCell>
        <mxCell id="lmOX5iegprUitVx04BKG-212" value="Dau" style="shape=rhombus;perimeter=rhombusPerimeter;whiteSpace=wrap;html=1;align=center;" parent="1" vertex="1">
          <mxGeometry x="-275.30000000000007" y="86.15" width="120" height="60" as="geometry" />
        </mxCell>
        <mxCell id="lmOX5iegprUitVx04BKG-214" value="MaChoDau" style="ellipse;whiteSpace=wrap;html=1;align=center;fontStyle=4;" parent="1" vertex="1">
          <mxGeometry x="-612" y="134" width="100" height="40" as="geometry" />
        </mxCell>
        <mxCell id="lmOX5iegprUitVx04BKG-215" value="" style="fontSize=12;html=1;endArrow=ERzeroToOne;endFill=1;rounded=0;" parent="1" source="lmOX5iegprUitVx04BKG-212" target="lmOX5iegprUitVx04BKG-210" edge="1">
          <mxGeometry width="100" height="100" relative="1" as="geometry">
            <mxPoint x="276" y="243" as="sourcePoint" />
            <mxPoint x="376" y="143" as="targetPoint" />
          </mxGeometry>
        </mxCell>
        <mxCell id="lmOX5iegprUitVx04BKG-216" value="" style="fontSize=12;html=1;endArrow=ERmandOne;rounded=0;" parent="1" source="lmOX5iegprUitVx04BKG-212" target="lmOX5iegprUitVx04BKG-2" edge="1">
          <mxGeometry width="100" height="100" relative="1" as="geometry">
            <mxPoint x="276" y="243" as="sourcePoint" />
            <mxPoint x="376" y="143" as="targetPoint" />
          </mxGeometry>
        </mxCell>
        <mxCell id="lmOX5iegprUitVx04BKG-217" value="ChoDauXeHoi" style="whiteSpace=wrap;html=1;align=center;" parent="1" vertex="1">
          <mxGeometry x="-398.20000000000005" y="270.15" width="100" height="40" as="geometry" />
        </mxCell>
        <mxCell id="lmOX5iegprUitVx04BKG-218" value="ChoDauXeMay" style="whiteSpace=wrap;html=1;align=center;" parent="1" vertex="1">
          <mxGeometry x="-516" y="280.15" width="100" height="40" as="geometry" />
        </mxCell>
        <mxCell id="lmOX5iegprUitVx04BKG-219" value="ChoDauXeDap" style="whiteSpace=wrap;html=1;align=center;" parent="1" vertex="1">
          <mxGeometry x="-643.8" y="280.15" width="100" height="40" as="geometry" />
        </mxCell>
        <mxCell id="lmOX5iegprUitVx04BKG-220" value="" style="endArrow=none;html=1;rounded=0;exitX=1;exitY=0.5;exitDx=0;exitDy=0;exitPerimeter=0;" parent="1" source="lmOX5iegprUitVx04BKG-224" target="lmOX5iegprUitVx04BKG-221" edge="1">
          <mxGeometry relative="1" as="geometry">
            <mxPoint x="-677.2" y="323.15" as="sourcePoint" />
            <mxPoint x="-570.2" y="94.14999999999998" as="targetPoint" />
          </mxGeometry>
        </mxCell>
        <mxCell id="lmOX5iegprUitVx04BKG-221" value="o" style="ellipse;whiteSpace=wrap;html=1;align=center;" parent="1" vertex="1">
          <mxGeometry x="-504.2" y="210.14999999999998" width="20.4" height="16" as="geometry" />
        </mxCell>
        <mxCell id="lmOX5iegprUitVx04BKG-222" value="" style="endArrow=none;html=1;rounded=0;exitX=1;exitY=0.5;exitDx=0;exitDy=0;exitPerimeter=0;" parent="1" source="lmOX5iegprUitVx04BKG-226" target="lmOX5iegprUitVx04BKG-221" edge="1">
          <mxGeometry relative="1" as="geometry">
            <mxPoint x="-634.2" y="224.14999999999998" as="sourcePoint" />
            <mxPoint x="-474.2" y="224.14999999999998" as="targetPoint" />
          </mxGeometry>
        </mxCell>
        <mxCell id="lmOX5iegprUitVx04BKG-223" value="" style="endArrow=none;html=1;rounded=0;" parent="1" source="lmOX5iegprUitVx04BKG-219" target="lmOX5iegprUitVx04BKG-224" edge="1">
          <mxGeometry relative="1" as="geometry">
            <mxPoint x="-665.8" y="220.14999999999998" as="sourcePoint" />
            <mxPoint x="-606.2" y="163.14999999999998" as="targetPoint" />
          </mxGeometry>
        </mxCell>
        <mxCell id="lmOX5iegprUitVx04BKG-224" value="" style="shape=requiredInterface;html=1;verticalLabelPosition=bottom;sketch=0;rotation=135;" parent="1" vertex="1">
          <mxGeometry x="-553.8" y="250.14999999999998" width="10" height="20" as="geometry" />
        </mxCell>
        <mxCell id="lmOX5iegprUitVx04BKG-225" value="" style="endArrow=none;html=1;rounded=0;" parent="1" source="lmOX5iegprUitVx04BKG-218" target="lmOX5iegprUitVx04BKG-226" edge="1">
          <mxGeometry relative="1" as="geometry">
            <mxPoint x="-513.8" y="220.14999999999998" as="sourcePoint" />
            <mxPoint x="-596.2" y="164.14999999999998" as="targetPoint" />
          </mxGeometry>
        </mxCell>
        <mxCell id="lmOX5iegprUitVx04BKG-226" value="" style="shape=requiredInterface;html=1;verticalLabelPosition=bottom;sketch=0;rotation=75;" parent="1" vertex="1">
          <mxGeometry x="-487" y="239.99999999999997" width="10" height="20" as="geometry" />
        </mxCell>
        <mxCell id="lmOX5iegprUitVx04BKG-227" value="" style="shape=link;html=1;rounded=0;" parent="1" source="lmOX5iegprUitVx04BKG-210" target="lmOX5iegprUitVx04BKG-221" edge="1">
          <mxGeometry relative="1" as="geometry">
            <mxPoint x="-481.8" y="190.14999999999998" as="sourcePoint" />
            <mxPoint x="-390.8" y="200.14999999999998" as="targetPoint" />
          </mxGeometry>
        </mxCell>
        <mxCell id="lmOX5iegprUitVx04BKG-228" value="" style="resizable=0;html=1;whiteSpace=wrap;align=right;verticalAlign=bottom;" parent="lmOX5iegprUitVx04BKG-227" connectable="0" vertex="1">
          <mxGeometry x="1" relative="1" as="geometry" />
        </mxCell>
        <mxCell id="lmOX5iegprUitVx04BKG-229" value="" style="endArrow=none;html=1;rounded=0;exitX=1;exitY=0.5;exitDx=0;exitDy=0;exitPerimeter=0;" parent="1" source="lmOX5iegprUitVx04BKG-231" target="lmOX5iegprUitVx04BKG-221" edge="1">
          <mxGeometry relative="1" as="geometry">
            <mxPoint x="-624.2" y="107.14999999999998" as="sourcePoint" />
            <mxPoint x="-582.8" y="40.14999999999998" as="targetPoint" />
          </mxGeometry>
        </mxCell>
        <mxCell id="lmOX5iegprUitVx04BKG-230" value="" style="endArrow=none;html=1;rounded=0;" parent="1" source="lmOX5iegprUitVx04BKG-217" target="lmOX5iegprUitVx04BKG-231" edge="1">
          <mxGeometry relative="1" as="geometry">
            <mxPoint x="-503.8" y="103.14999999999998" as="sourcePoint" />
            <mxPoint x="-586.2" y="47.14999999999998" as="targetPoint" />
          </mxGeometry>
        </mxCell>
        <mxCell id="lmOX5iegprUitVx04BKG-231" value="" style="shape=requiredInterface;html=1;verticalLabelPosition=bottom;sketch=0;rotation=20;" parent="1" vertex="1">
          <mxGeometry x="-433.8" y="240.14999999999998" width="10" height="20" as="geometry" />
        </mxCell>
        <mxCell id="lmOX5iegprUitVx04BKG-232" value="1 Xe hơi = 3 Xe máy = 3 Xe đạp" style="text;strokeColor=none;fillColor=none;spacingLeft=4;spacingRight=4;overflow=hidden;rotatable=0;points=[[0,0.5],[1,0.5]];portConstraint=eastwest;fontSize=12;whiteSpace=wrap;html=1;" parent="1" vertex="1">
          <mxGeometry x="-591" y="345" width="218" height="79" as="geometry" />
        </mxCell>
        <mxCell id="lmOX5iegprUitVx04BKG-235" value="SucChua" style="ellipse;whiteSpace=wrap;html=1;align=center;" parent="1" vertex="1">
          <mxGeometry x="-402" y="59.99999999999998" width="100" height="40" as="geometry" />
        </mxCell>
        <mxCell id="lmOX5iegprUitVx04BKG-236" value="" style="endArrow=none;html=1;rounded=0;" parent="1" source="lmOX5iegprUitVx04BKG-235" target="lmOX5iegprUitVx04BKG-210" edge="1">
          <mxGeometry relative="1" as="geometry">
            <mxPoint x="-140" y="346" as="sourcePoint" />
            <mxPoint x="20" y="346" as="targetPoint" />
          </mxGeometry>
        </mxCell>
        <mxCell id="lmOX5iegprUitVx04BKG-237" value="DoChiemCho" style="ellipse;whiteSpace=wrap;html=1;align=center;dashed=1;" parent="1" vertex="1">
          <mxGeometry x="178" y="66" width="100" height="40" as="geometry" />
        </mxCell>
        <mxCell id="lmOX5iegprUitVx04BKG-238" value="" style="endArrow=none;html=1;rounded=0;" parent="1" source="lmOX5iegprUitVx04BKG-2" target="lmOX5iegprUitVx04BKG-237" edge="1">
          <mxGeometry relative="1" as="geometry">
            <mxPoint x="-140" y="346" as="sourcePoint" />
            <mxPoint x="20" y="346" as="targetPoint" />
          </mxGeometry>
        </mxCell>
        <mxCell id="lmOX5iegprUitVx04BKG-239" value="&lt;u&gt;BiChiemCho&lt;/u&gt;" style="ellipse;whiteSpace=wrap;html=1;align=center;" parent="1" vertex="1">
          <mxGeometry x="-512" y="60.00000000000001" width="100" height="40" as="geometry" />
        </mxCell>
        <mxCell id="lmOX5iegprUitVx04BKG-240" value="" style="endArrow=none;html=1;rounded=0;" parent="1" source="lmOX5iegprUitVx04BKG-239" target="lmOX5iegprUitVx04BKG-210" edge="1">
          <mxGeometry relative="1" as="geometry">
            <mxPoint x="-730" y="204" as="sourcePoint" />
            <mxPoint x="-570" y="204" as="targetPoint" />
          </mxGeometry>
        </mxCell>
        <mxCell id="lmOX5iegprUitVx04BKG-241" value="DanhCho" style="ellipse;whiteSpace=wrap;html=1;align=center;" parent="1" vertex="1">
          <mxGeometry x="-591" y="90.15" width="100" height="40" as="geometry" />
        </mxCell>
        <mxCell id="lmOX5iegprUitVx04BKG-242" value="" style="endArrow=none;html=1;rounded=0;" parent="1" source="lmOX5iegprUitVx04BKG-241" target="lmOX5iegprUitVx04BKG-210" edge="1">
          <mxGeometry relative="1" as="geometry">
            <mxPoint x="-800" y="276" as="sourcePoint" />
            <mxPoint x="-640" y="276" as="targetPoint" />
          </mxGeometry>
        </mxCell>
        <mxCell id="lmOX5iegprUitVx04BKG-243" value="LoaiXe" style="ellipse;whiteSpace=wrap;html=1;align=center;" parent="1" vertex="1">
          <mxGeometry x="138.8" y="150" width="100" height="40" as="geometry" />
        </mxCell>
        <mxCell id="lmOX5iegprUitVx04BKG-244" value="" style="endArrow=none;html=1;rounded=0;" parent="1" source="lmOX5iegprUitVx04BKG-2" target="lmOX5iegprUitVx04BKG-243" edge="1">
          <mxGeometry relative="1" as="geometry">
            <mxPoint x="-460" y="418" as="sourcePoint" />
            <mxPoint x="-300" y="418" as="targetPoint" />
          </mxGeometry>
        </mxCell>
        <mxCell id="xj7sImhzJxMky1cZu01J-1" value="BienSoXe" style="ellipse;whiteSpace=wrap;html=1;align=center;" parent="1" vertex="1">
          <mxGeometry x="115" y="16" width="100" height="40" as="geometry" />
        </mxCell>
        <mxCell id="u_1vB_NUZh2ox5rQZiaN-1" value="ThuocVe" style="shape=rhombus;perimeter=rhombusPerimeter;whiteSpace=wrap;html=1;align=center;" parent="1" vertex="1">
          <mxGeometry x="253" y="432" width="86" height="43" as="geometry" />
        </mxCell>
        <mxCell id="u_1vB_NUZh2ox5rQZiaN-2" value="" style="fontSize=12;html=1;endArrow=ERmandOne;rounded=0;" parent="1" source="u_1vB_NUZh2ox5rQZiaN-1" target="lmOX5iegprUitVx04BKG-6" edge="1">
          <mxGeometry width="100" height="100" relative="1" as="geometry">
            <mxPoint x="-49" y="493" as="sourcePoint" />
            <mxPoint x="51" y="393" as="targetPoint" />
          </mxGeometry>
        </mxCell>
        <mxCell id="u_1vB_NUZh2ox5rQZiaN-3" value="" style="fontSize=12;html=1;endArrow=ERoneToMany;rounded=0;" parent="1" source="u_1vB_NUZh2ox5rQZiaN-1" target="lmOX5iegprUitVx04BKG-5" edge="1">
          <mxGeometry width="100" height="100" relative="1" as="geometry">
            <mxPoint x="-49" y="493" as="sourcePoint" />
            <mxPoint x="51" y="393" as="targetPoint" />
          </mxGeometry>
        </mxCell>
      </root>
    </mxGraphModel>
  </diagram>
  <diagram id="L25e2IcXCD74OaCe1ko1" name="Page-3">
    <mxGraphModel dx="2283" dy="1680" grid="1" gridSize="10" guides="1" tooltips="1" connect="1" arrows="1" fold="1" page="1" pageScale="1" pageWidth="850" pageHeight="1100" math="0" shadow="0">
      <root>
        <mxCell id="0" />
        <mxCell id="1" parent="0" />
        <mxCell id="HdG4tpTXAvvGeZB22CEc-1" value="&lt;p class=&quot;MsoNormal&quot;&gt;ContractDetails(&lt;u&gt;ConstractID, JobID, CustomerID&lt;/u&gt;)&lt;/p&gt;" style="text;align=center;fontStyle=0;verticalAlign=middle;spacingLeft=3;spacingRight=3;strokeColor=none;rotatable=0;points=[[0,0.5],[1,0.5]];portConstraint=eastwest;html=1;" parent="1" vertex="1">
          <mxGeometry x="360" y="476" width="359" height="26" as="geometry" />
        </mxCell>
        <mxCell id="HdG4tpTXAvvGeZB22CEc-2" value="&lt;p class=&quot;MsoNormal&quot;&gt;&lt;span style=&quot;font-size:11.0pt;line-height:115%;&lt;br/&gt;font-family:&amp;quot;Aptos&amp;quot;,sans-serif;mso-ascii-theme-font:minor-latin;mso-fareast-font-family:&lt;br/&gt;Aptos;mso-fareast-theme-font:minor-latin;mso-hansi-theme-font:minor-latin;&lt;br/&gt;mso-bidi-font-family:&amp;quot;Times New Roman&amp;quot;;mso-bidi-theme-font:minor-bidi;&lt;br/&gt;mso-font-kerning:0pt;mso-ligatures:none;mso-ansi-language:EN-US;mso-fareast-language:&lt;br/&gt;EN-US;mso-bidi-language:AR-SA&quot;&gt;Vehicle(&lt;u&gt;VehicleID&lt;/u&gt;, LicensePlate&lt;u&gt;,&lt;/u&gt;&amp;nbsp;Occupancy, TypeOfVehicle, &lt;u&gt;CustomerID&lt;/u&gt;, &lt;u&gt;ParkingSpotID&lt;/u&gt;) &amp;nbsp;&lt;/span&gt;&lt;br&gt;&lt;/p&gt;" style="text;align=center;fontStyle=0;verticalAlign=middle;spacingLeft=3;spacingRight=3;strokeColor=none;rotatable=0;points=[[0,0.5],[1,0.5]];portConstraint=eastwest;html=1;" parent="1" vertex="1">
          <mxGeometry x="-183" y="200" width="608" height="26" as="geometry" />
        </mxCell>
        <mxCell id="HdG4tpTXAvvGeZB22CEc-3" value="&lt;p class=&quot;MsoNormal&quot;&gt;Contract&lt;u&gt;(ConstractID)&lt;/u&gt;&lt;/p&gt;" style="text;align=center;fontStyle=0;verticalAlign=middle;spacingLeft=3;spacingRight=3;strokeColor=none;rotatable=0;points=[[0,0.5],[1,0.5]];portConstraint=eastwest;html=1;" parent="1" vertex="1">
          <mxGeometry x="533" y="242" width="137" height="26" as="geometry" />
        </mxCell>
        <mxCell id="HdG4tpTXAvvGeZB22CEc-4" value="&lt;p class=&quot;MsoNormal&quot;&gt;ContractSigning(&lt;u&gt;VehicleID, ContractID&lt;/u&gt;)&lt;/p&gt;" style="text;align=center;fontStyle=0;verticalAlign=middle;spacingLeft=3;spacingRight=3;strokeColor=none;rotatable=0;points=[[0,0.5],[1,0.5]];portConstraint=eastwest;html=1;" parent="1" vertex="1">
          <mxGeometry x="330" y="99" width="230" height="26" as="geometry" />
        </mxCell>
        <mxCell id="HdG4tpTXAvvGeZB22CEc-5" value="&lt;p class=&quot;MsoNormal&quot;&gt;Specialization(&lt;u&gt;SpecializationID&lt;/u&gt;, SpecializationName)&lt;/p&gt;" style="text;align=center;fontStyle=0;verticalAlign=middle;spacingLeft=3;spacingRight=3;strokeColor=none;rotatable=0;points=[[0,0.5],[1,0.5]];portConstraint=eastwest;html=1;" parent="1" vertex="1">
          <mxGeometry x="-140" y="268" width="300" height="26" as="geometry" />
        </mxCell>
        <mxCell id="HdG4tpTXAvvGeZB22CEc-6" value="&lt;p class=&quot;MsoNormal&quot;&gt;Job(&lt;u&gt;JobID,&lt;/u&gt;&amp;nbsp;&lt;u&gt;SpecializationID&lt;/u&gt;, JobName, JobValue)&lt;/p&gt;" style="text;align=center;fontStyle=0;verticalAlign=middle;spacingLeft=3;spacingRight=3;strokeColor=none;rotatable=0;points=[[0,0.5],[1,0.5]];portConstraint=eastwest;html=1;" parent="1" vertex="1">
          <mxGeometry x="130" y="352" width="280" height="26" as="geometry" />
        </mxCell>
        <mxCell id="HdG4tpTXAvvGeZB22CEc-7" value="Receipt(&lt;u&gt;ReceiptID&lt;/u&gt;, TotalCost,&amp;nbsp;&amp;nbsp;&lt;u&gt;CustomerID&lt;/u&gt;, &lt;u&gt;ContractID&lt;/u&gt;)&amp;nbsp;" style="text;align=center;fontStyle=0;verticalAlign=middle;spacingLeft=3;spacingRight=3;strokeColor=none;rotatable=0;points=[[0,0.5],[1,0.5]];portConstraint=eastwest;html=1;" parent="1" vertex="1">
          <mxGeometry x="493" y="26" width="345" height="26" as="geometry" />
        </mxCell>
        <mxCell id="HdG4tpTXAvvGeZB22CEc-8" value="&lt;p class=&quot;MsoNormal&quot;&gt;Customer(&lt;u&gt;CustomerID&lt;/u&gt;, Name, PhoneNumber, Address)&lt;/p&gt;" style="text;align=center;fontStyle=0;verticalAlign=middle;spacingLeft=3;spacingRight=3;strokeColor=none;rotatable=0;points=[[0,0.5],[1,0.5]];portConstraint=eastwest;html=1;" parent="1" vertex="1">
          <mxGeometry x="60" y="-26" width="323" height="26" as="geometry" />
        </mxCell>
        <mxCell id="HdG4tpTXAvvGeZB22CEc-9" value="" style="endArrow=open;endFill=1;endSize=12;html=1;rounded=0;" parent="1" source="HdG4tpTXAvvGeZB22CEc-15" target="HdG4tpTXAvvGeZB22CEc-5" edge="1">
          <mxGeometry width="160" relative="1" as="geometry">
            <mxPoint x="426" y="334" as="sourcePoint" />
            <mxPoint x="586" y="334" as="targetPoint" />
          </mxGeometry>
        </mxCell>
        <mxCell id="HdG4tpTXAvvGeZB22CEc-10" value="" style="endArrow=open;endFill=1;endSize=12;html=1;rounded=0;" parent="1" source="HdG4tpTXAvvGeZB22CEc-4" target="HdG4tpTXAvvGeZB22CEc-3" edge="1">
          <mxGeometry width="160" relative="1" as="geometry">
            <mxPoint x="436" y="344" as="sourcePoint" />
            <mxPoint x="596" y="344" as="targetPoint" />
          </mxGeometry>
        </mxCell>
        <mxCell id="HdG4tpTXAvvGeZB22CEc-11" value="" style="endArrow=open;endFill=1;endSize=12;html=1;rounded=0;" parent="1" source="HdG4tpTXAvvGeZB22CEc-4" target="HdG4tpTXAvvGeZB22CEc-2" edge="1">
          <mxGeometry width="160" relative="1" as="geometry">
            <mxPoint x="446" y="354" as="sourcePoint" />
            <mxPoint x="606" y="354" as="targetPoint" />
          </mxGeometry>
        </mxCell>
        <mxCell id="HdG4tpTXAvvGeZB22CEc-12" value="" style="endArrow=open;endFill=1;endSize=12;html=1;rounded=0;" parent="1" source="HdG4tpTXAvvGeZB22CEc-1" target="HdG4tpTXAvvGeZB22CEc-3" edge="1">
          <mxGeometry width="160" relative="1" as="geometry">
            <mxPoint x="436" y="344" as="sourcePoint" />
            <mxPoint x="596" y="344" as="targetPoint" />
          </mxGeometry>
        </mxCell>
        <mxCell id="HdG4tpTXAvvGeZB22CEc-13" value="" style="endArrow=open;endFill=1;endSize=12;html=1;rounded=0;" parent="1" source="HdG4tpTXAvvGeZB22CEc-1" target="HdG4tpTXAvvGeZB22CEc-6" edge="1">
          <mxGeometry width="160" relative="1" as="geometry">
            <mxPoint x="446" y="354" as="sourcePoint" />
            <mxPoint x="606" y="354" as="targetPoint" />
          </mxGeometry>
        </mxCell>
        <mxCell id="HdG4tpTXAvvGeZB22CEc-14" value="&lt;p class=&quot;MsoNormal&quot;&gt;WorkSkills(&lt;u&gt;EmployeeID, JobID&lt;/u&gt;)&lt;/p&gt;" style="text;align=center;fontStyle=0;verticalAlign=middle;spacingLeft=3;spacingRight=3;strokeColor=none;rotatable=0;points=[[0,0.5],[1,0.5]];portConstraint=eastwest;html=1;" parent="1" vertex="1">
          <mxGeometry x="95" y="476" width="173" height="26" as="geometry" />
        </mxCell>
        <mxCell id="HdG4tpTXAvvGeZB22CEc-15" value="&lt;p class=&quot;MsoNormal&quot;&gt;ExcelsIn(&lt;u&gt;EmployeeID, SpecializationID&lt;/u&gt;)&lt;/p&gt;" style="text;align=center;fontStyle=0;verticalAlign=middle;spacingLeft=3;spacingRight=3;strokeColor=none;rotatable=0;points=[[0,0.5],[1,0.5]];portConstraint=eastwest;html=1;" parent="1" vertex="1">
          <mxGeometry x="-155" y="430" width="215" height="26" as="geometry" />
        </mxCell>
        <mxCell id="HdG4tpTXAvvGeZB22CEc-16" value="" style="endArrow=open;endFill=1;endSize=12;html=1;rounded=0;" parent="1" source="HdG4tpTXAvvGeZB22CEc-15" target="HdG4tpTXAvvGeZB22CEc-19" edge="1">
          <mxGeometry width="160" relative="1" as="geometry">
            <mxPoint x="436" y="344" as="sourcePoint" />
            <mxPoint x="596" y="344" as="targetPoint" />
          </mxGeometry>
        </mxCell>
        <mxCell id="HdG4tpTXAvvGeZB22CEc-17" value="" style="endArrow=open;endFill=1;endSize=12;html=1;rounded=0;" parent="1" source="HdG4tpTXAvvGeZB22CEc-14" target="HdG4tpTXAvvGeZB22CEc-19" edge="1">
          <mxGeometry width="160" relative="1" as="geometry">
            <mxPoint x="446" y="354" as="sourcePoint" />
            <mxPoint x="606" y="354" as="targetPoint" />
          </mxGeometry>
        </mxCell>
        <mxCell id="HdG4tpTXAvvGeZB22CEc-18" value="" style="endArrow=open;endFill=1;endSize=12;html=1;rounded=0;" parent="1" source="HdG4tpTXAvvGeZB22CEc-14" target="HdG4tpTXAvvGeZB22CEc-6" edge="1">
          <mxGeometry width="160" relative="1" as="geometry">
            <mxPoint x="389" y="445" as="sourcePoint" />
            <mxPoint x="266" y="351" as="targetPoint" />
          </mxGeometry>
        </mxCell>
        <mxCell id="HdG4tpTXAvvGeZB22CEc-19" value="&lt;p class=&quot;MsoNormal&quot;&gt;Employee(&lt;u&gt;EmployeeID&lt;/u&gt;, EmployeeType, EmployeeName, BirthDay, Gender, Address, PhoneNumber)&lt;/p&gt;" style="text;align=center;fontStyle=0;verticalAlign=middle;spacingLeft=3;spacingRight=3;strokeColor=none;rotatable=0;points=[[0,0.5],[1,0.5]];portConstraint=eastwest;html=1;" parent="1" vertex="1">
          <mxGeometry x="-165" y="610" width="590" height="26" as="geometry" />
        </mxCell>
        <mxCell id="HdG4tpTXAvvGeZB22CEc-20" value="" style="endArrow=open;endFill=1;endSize=12;html=1;rounded=0;" parent="1" source="HdG4tpTXAvvGeZB22CEc-2" target="HdG4tpTXAvvGeZB22CEc-23" edge="1">
          <mxGeometry width="160" relative="1" as="geometry">
            <mxPoint x="426" y="334" as="sourcePoint" />
            <mxPoint x="586" y="334" as="targetPoint" />
          </mxGeometry>
        </mxCell>
        <mxCell id="HdG4tpTXAvvGeZB22CEc-21" value="" style="endArrow=open;endFill=1;endSize=12;html=1;rounded=0;" parent="1" source="HdG4tpTXAvvGeZB22CEc-7" target="HdG4tpTXAvvGeZB22CEc-3" edge="1">
          <mxGeometry width="160" relative="1" as="geometry">
            <mxPoint x="436" y="344" as="sourcePoint" />
            <mxPoint x="596" y="344" as="targetPoint" />
          </mxGeometry>
        </mxCell>
        <mxCell id="HdG4tpTXAvvGeZB22CEc-22" value="" style="endArrow=open;endFill=1;endSize=12;html=1;rounded=0;" parent="1" source="HdG4tpTXAvvGeZB22CEc-7" target="HdG4tpTXAvvGeZB22CEc-8" edge="1">
          <mxGeometry width="160" relative="1" as="geometry">
            <mxPoint x="446" y="354" as="sourcePoint" />
            <mxPoint x="606" y="354" as="targetPoint" />
          </mxGeometry>
        </mxCell>
        <mxCell id="HdG4tpTXAvvGeZB22CEc-23" value="&lt;p class=&quot;MsoNormal&quot;&gt;&lt;span style=&quot;font-size:11.0pt;line-height:115%;&lt;br/&gt;font-family:&amp;quot;Aptos&amp;quot;,sans-serif;mso-ascii-theme-font:minor-latin;mso-fareast-font-family:&lt;br/&gt;Aptos;mso-fareast-theme-font:minor-latin;mso-hansi-theme-font:minor-latin;&lt;br/&gt;mso-bidi-font-family:&amp;quot;Times New Roman&amp;quot;;mso-bidi-theme-font:minor-bidi;&lt;br/&gt;mso-font-kerning:0pt;mso-ligatures:none;mso-ansi-language:EN-US;mso-fareast-language:&lt;br/&gt;EN-US;mso-bidi-language:AR-SA&quot;&gt;ParkingSpot(&lt;u&gt;ParkingSpotID,&lt;/u&gt;&amp;nbsp;BeingOccupied, DesignatedFor, Capacity)&lt;/span&gt;&lt;br&gt;&lt;/p&gt;" style="text;align=center;fontStyle=0;verticalAlign=middle;spacingLeft=3;spacingRight=3;strokeColor=none;rotatable=0;points=[[0,0.5],[1,0.5]];portConstraint=eastwest;html=1;" parent="1" vertex="1">
          <mxGeometry x="-330" y="50" width="480" height="26" as="geometry" />
        </mxCell>
        <mxCell id="HdG4tpTXAvvGeZB22CEc-24" value="" style="endArrow=open;endFill=1;endSize=12;html=1;rounded=0;" parent="1" source="HdG4tpTXAvvGeZB22CEc-2" target="HdG4tpTXAvvGeZB22CEc-8" edge="1">
          <mxGeometry width="160" relative="1" as="geometry">
            <mxPoint x="436" y="344" as="sourcePoint" />
            <mxPoint x="596" y="344" as="targetPoint" />
          </mxGeometry>
        </mxCell>
        <mxCell id="HdG4tpTXAvvGeZB22CEc-25" value="" style="endArrow=open;endFill=1;endSize=12;html=1;rounded=0;" parent="1" source="HdG4tpTXAvvGeZB22CEc-1" target="HdG4tpTXAvvGeZB22CEc-19" edge="1">
          <mxGeometry width="160" relative="1" as="geometry">
            <mxPoint x="530" y="445" as="sourcePoint" />
            <mxPoint x="447" y="336" as="targetPoint" />
          </mxGeometry>
        </mxCell>
        <mxCell id="QtWBr-580eZwIzINdrGw-1" value="" style="endArrow=open;endFill=1;endSize=12;html=1;rounded=0;" parent="1" source="HdG4tpTXAvvGeZB22CEc-6" target="HdG4tpTXAvvGeZB22CEc-5" edge="1">
          <mxGeometry width="160" relative="1" as="geometry">
            <mxPoint x="-73" y="435" as="sourcePoint" />
            <mxPoint x="-139" y="356" as="targetPoint" />
          </mxGeometry>
        </mxCell>
        <mxCell id="BPzkAubFst_kz5mKNtAO-1" value="&lt;p class=&quot;MsoNormal&quot;&gt;RentalContract(ContractID, Renter, RentalStartDate, RentalEndDate, RentalDurationInDays, Price, PaymentStatus)&lt;br&gt;&lt;/p&gt;" style="text;align=center;fontStyle=0;verticalAlign=middle;spacingLeft=3;spacingRight=3;strokeColor=none;rotatable=0;points=[[0,0.5],[1,0.5]];portConstraint=eastwest;html=1;" parent="1" vertex="1">
          <mxGeometry x="580" y="210" width="747" height="26" as="geometry" />
        </mxCell>
        <mxCell id="BPzkAubFst_kz5mKNtAO-2" value="&lt;p class=&quot;MsoNormal&quot;&gt;MaintenanceContract(ContractID, WarrantyDurationInMonths, RentalStartDate, RentalEndDate, RentalDurationInDays, Price, PaymentStatus)&lt;br&gt;&lt;/p&gt;" style="text;align=center;fontStyle=0;verticalAlign=middle;spacingLeft=3;spacingRight=3;strokeColor=none;rotatable=0;points=[[0,0.5],[1,0.5]];portConstraint=eastwest;html=1;" parent="1" vertex="1">
          <mxGeometry x="620" y="280" width="747" height="26" as="geometry" />
        </mxCell>
        <mxCell id="uz4IVE2pN0qus9sUq_ti-2" value="Contract&lt;div&gt;&lt;br&gt;&lt;/div&gt;&lt;div&gt;&lt;br&gt;&lt;/div&gt;" style="text;strokeColor=none;fillColor=none;spacingLeft=4;spacingRight=4;overflow=hidden;rotatable=0;points=[[0,0.5],[1,0.5]];portConstraint=eastwest;fontSize=12;whiteSpace=wrap;html=1;" parent="1" vertex="1">
          <mxGeometry x="990" y="21" width="200" height="169" as="geometry" />
        </mxCell>
        <mxCell id="zQN7VwGaD1aysTtck275-2" value="Wage" style="ellipse;whiteSpace=wrap;html=1;align=center;dashed=1;" parent="1" vertex="1">
          <mxGeometry x="600" y="530" width="100" height="40" as="geometry" />
        </mxCell>
      </root>
    </mxGraphModel>
  </diagram>
</mxfile>
